<svg xmlns="http://www.w3.org/2000/svg" viewBox="0 0 420 120" role="img" aria-labelledby="title desc">
  <title id="title">Researchwithjanelle logo</title>
  <desc id="desc">Minimal academic book, pen nib, and graduation cap mark with the Researchwithjanelle wordmark.</desc>
  <defs>
    <linearGradient id="emerald" x1="0" x2="1" y1="0" y2="1"><stop offset="0" stop-color="#00b98d"/><stop offset="1" stop-color="#007d61"/></linearGradient>
    <filter id="shadow" x="-20%" y="-20%" width="140%" height="140%"><feDropShadow dx="0" dy="10" stdDeviation="10" flood-color="#003f31" flood-opacity=".18"/></filter>
  </defs>
  <g filter="url(#shadow)">
    <rect x="14" y="18" width="84" height="84" rx="22" fill="#fff"/>
    <path d="M32 42c13-7 27-6 42 2v40c-15-8-29-9-42-2V42Z" fill="url(#emerald)"/>
    <path d="M74 44c12-8 24-8 36-1v39c-12-7-24-7-36 1V44Z" fill="#111"/>
    <path d="M53 33h52L79 21 53 33Z" fill="#D4AF37"/>
    <path d="M104 34v20" stroke="#D4AF37" stroke-width="4" stroke-linecap="round"/>
    <circle cx="104" cy="58" r="4" fill="#D4AF37"/>
    <path d="M60 54l12 32 12-32-12-8-12 8Z" fill="#fff"/>
    <path d="M72 48v38" stroke="#111" stroke-width="3" stroke-linecap="round"/>
  </g>
  <text x="122" y="55" fill="#111" font-family="Poppins, Inter, Arial, sans-serif" font-size="30" font-weight="800">Research<tspan fill="#009B77">withjanelle</tspan></text>
  <text x="124" y="83" fill="#5f6865" font-family="Inter, Arial, sans-serif" font-size="13" font-weight="600" letter-spacing="1.8">ACADEMIC RESEARCH CONSULTANCY</text>
</svg>