<svg xmlns="http://www.w3.org/2000/svg" viewBox="0 0 720 860" role="img" aria-labelledby="title desc"><title id="title">Professional portrait placeholder</title><desc id="desc">Elegant portrait placeholder for the founder of Researchwithjanelle.</desc><defs><linearGradient id="bg" x1="0" x2="1" y1="0" y2="1"><stop offset="0" stop-color="#eaf8f4"/><stop offset=".55" stop-color="#ffffff"/><stop offset="1" stop-color="#f8f2df"/></linearGradient><linearGradient id="jacket" x1="0" x2="1" y1="0" y2="1"><stop offset="0" stop-color="#111"/><stop offset="1" stop-color="#173c34"/></linearGradient></defs><rect width="720" height="860" rx="48" fill="url(#bg)"/><circle cx="570" cy="128" r="72" fill="#009B77" opacity=".14"/><circle cx="120" cy="710" r="96" fill="#D4AF37" opacity=".16"/><path d="M190 802c20-174 95-276 170-276s150 102 170 276H190Z" fill="url(#jacket)"/><path d="M292 540h136l-30 124h-76l-30-124Z" fill="#f4c9ad"/><path d="M238 324c0-89 52-154 126-154s122 65 122 154c0 118-57 204-125 204s-123-86-123-204Z" fill="#f3c3a5"/><path d="M230 333c4-118 58-192 138-192 76 0 132 62 137 170-45-15-77-45-98-91-27 62-85 97-177 113Z" fill="#1e1715"/><path d="M274 448c50 45 116 47 170 0-21 57-52 83-85 83-34 0-64-27-85-83Z" fill="#f6d8c4" opacity=".55"/><path d="M322 618l38 54 38-54 58 184H264l58-184Z" fill="#fff"/><path d="M210 802h300l-70-214-80 88-80-88-70 214Z" fill="#111"/><path d="M302 705h116" stroke="#D4AF37" stroke-width="8" stroke-linecap="round"/><text x="360" y="92" text-anchor="middle" fill="#111" font-family="Poppins, Arial, sans-serif" font-size="30" font-weight="800">Elega Boluwatife</text><text x="360" y="128" text-anchor="middle" fill="#009B77" font-family="Inter, Arial, sans-serif" font-size="18" font-weight="700">Founder, Researchwithjanelle</text></svg>